<?xml version="1.0" encoding="UTF-8"?>
<svg viewBox="0 0 102 26" xmlns="http://www.w3.org/2000/svg">
  <path
    d="m5.8654 3.7435 0.78681 2.2649c0.66761-0.85511 1.4783-1.5253 2.3843-2.0107 0.92987-0.48533 2.0743-0.71644 3.4333-0.71644 1.7167 0 3.2904 0.43911 4.7209 1.2711 1.4306 0.85511 2.5751 2.0338 3.4334 3.536 0.8345 1.5022 1.2637 3.1893 1.2637 5.0151 0 1.8257-0.4292 3.4897-1.2637 4.9689-0.8345 1.4791-1.9789 2.6577-3.4334 3.5128-1.4305 0.8552-3.0042 1.2712-4.7209 1.2712-2.4796 0-4.4347-0.8089-5.8415-2.4498v5.5929h-6.6283v-22.256h5.8654zm8.035 12.341c0.8345-0.7858 1.2399-1.7796 1.2399-2.9582 0-1.1787-0.4292-2.1725-1.2637-3.0045-0.8345-0.80885-1.8836-1.2248-3.1234-1.2248-1.2637 0-2.3128 0.416-3.1473 1.2248-0.8345 0.8089-1.2398 1.8027-1.2398 2.9583 0 1.2017 0.40533 2.2186 1.2398 3.0044s1.8836 1.1787 3.1473 1.1787c1.2636 0.0231 2.3127-0.3929 3.1472-1.1787z"
    fill="#004A27" />
  <path d="M23.1515 0H29.8037V22.4409H23.1515V0Z" fill="#004A27" />
  <path
    d="m48.091 5.2473c1.7405 1.3173 2.6227 3.2124 2.6227 5.6854v11.509h-5.4839l-0.8583-2.5653c-1.2876 2.0106-3.3142 3.0275-6.0323 3.0275-2.3843 0-4.1963-0.5084-5.4362-1.5484-1.2398-1.04-1.8597-2.3574-1.8597-3.9983 0-1.7102 0.6914-3.0968 2.0505-4.16 1.359-1.0631 3.481-1.5946 6.366-1.5946h4.6017v-0.6702c0-0.8552-0.2861-1.4792-0.8583-1.8952-0.5723-0.39289-1.2876-0.60089-2.1459-0.60089-0.8345 0-1.5259 0.16178-2.0743 0.46223-0.5484 0.32355-0.9061 0.78577-1.0253 1.4098h-6.3422c0.0954-1.3867 0.5722-2.6116 1.3829-3.6747s1.9313-1.8951 3.338-2.496 3.0042-0.87822 4.7924-0.87822c2.8612 0.02311 5.1978 0.67022 6.9622 1.9876zm-4.3871 9.9609h-3.4334c-0.6915 0-1.2398 0.1387-1.6213 0.416s-0.5723 0.6471-0.5723 1.0862c0 0.4623 0.1908 0.7858 0.5723 1.0169s0.8583 0.3467 1.4544 0.3467c1.8597 0 3.0519-0.9707 3.6003-2.8658z"
    fill="#004A27" />
  <path
    d="m70.694 5.6168c1.2875 1.5484 1.9313 3.7671 1.9313 6.6329v10.192h-6.6045v-9.6143c0-1.3635-0.2623-2.3804-0.7868-3.0968-0.5246-0.69333-1.4068-1.0631-2.6228-1.0631-1.1206 0-2.0266 0.36978-2.6942 1.1093-0.6915 0.73953-1.0253 1.7564-1.0253 3.0275v9.6143h-6.6521v-18.72h5.7938l0.5484 2.9813c0.6437-1.0631 1.5259-1.8951 2.5989-2.5191 1.0967-0.624 2.3842-0.92444 3.8863-0.92444 2.4559 0.04622 4.3395 0.832 5.627 2.3804z"
    fill="#004A27" />
  <path
    d="m94.942 22.441-1.9074-5.4311h-9.6564l-1.9074 5.4311h-6.9622l8.4166-22.441h10.682l8.3928 22.441h-7.0576zm-9.7994-10.4h6.1991l-3.1234-8.8747-3.0757 8.8747z"
    fill="#00D46E" />
</svg>